ply
format ascii 1.0
element vertex 1400
property float x
property float y
property float z
property uchar red
property uchar green
property uchar blue
end_header
-0.509747 -2.2201 7.29459 17 43 58
0.834172 -1.90316 6.33805 137 118 137
-0.601561 -2.17733 7.38182 92 91 73
-0.541217 -2.14457 7.3265 147 138 123
-1.08524 -2.24423 7.86437 63 46 62
0.564953 -1.86347 6.55023 81 64 96
0.412833 -1.42011 6.59875 72 55 71
0.375808 -1.40631 6.6229 109 96 113
-2.22467 -1.83522 8.71756 77 56 73
1.18944 -1.18482 5.98762 69 44 63
1.4412 -1.031 5.73743 106 93 103
-2.10639 -0.276977 8.43062 122 99 115
-0.77583 -0.212565 6.89661 138 122 107
-3.53857 -0.271443 9.45564 119 127 166
1.63333 0.040918 5.45202 75 52 70
-2.62984 0.305463 8.74715 68 56 76
-0.369645 0.251728 6.55637 70 25 32
-0.985046 0.3923 7.01471 71 28 38
-0.808702 0.372188 6.65915 175 165 155
-0.827667 0.399541 6.63513 179 179 171
-0.792519 0.428154 6.60203 195 193 180
-0.778352 0.43218 6.62586 194 191 176
-0.790382 0.44354 6.60446 109 103 107
-0.829861 0.48843 6.75711 125 124 130
-1.03338 0.58742 7.0315 62 19 29
1.13927 0.488882 5.77795 83 69 95
-3.043 0.771422 8.99295 84 71 97
-2.63223 0.939538 8.64959 50 41 68
-2.58488 1.0408 8.57519 158 164 212
-2.6358 1.10566 8.61986 52 53 107
-2.54486 1.15209 8.5346 109 126 178
-2.615 1.16489 8.61318 121 111 161
-2.5529 1.15555 8.54082 122 128 180
-0.226551 0.998403 6.08134 74 37 54
-3.63509 2.1349 8.93046 74 84 96
-3.32634 2.13347 8.69806 161 161 189
2.29728 1.48175 5.23848 30 27 54
1.71992 1.60065 5.04471 39 43 78
1.71949 1.60428 5.02797 134 172 234
1.68683 1.61839 5.05556 50 39 56
1.82918 1.58719 4.93099 56 70 141
1.7025 1.62556 5.04241 18 36 76
1.86401 1.60717 4.9142 97 111 186
-1.59952 1.73237 5.23883 152 184 245
1.697 1.70181 5.03219 52 34 48
1.73495 1.74991 5.00458 104 121 167
1.75051 1.74189 4.99717 53 61 136
1.6844 1.72324 5.04646 45 32 49
1.69689 1.70209 5.03197 52 34 48
1.792 1.66459 4.95597 146 166 229
1.83887 1.58216 4.92525 146 176 240
-1.95299 1.7792 5.62285 112 120 139
1.70145 1.59144 5.05705 40 22 34
0.651478 -1.96642 6.49622 67 49 71
-0.601354 -2.17711 7.38564 80 76 65
-3.28461 2.13177 8.70841 167 183 217
1.12503 -1.72973 6.11768 67 50 69
-0.458491 -1.8567 6.7433 100 57 76
-3.69392 1.96858 9.15152 64 90 125
-3.55679 1.30716 9.28348 39 46 75
-2.5416 1.17754 8.55751 33 35 60
-2.53245 1.13296 8.57723 16 24 70
-0.168678 -0.997302 6.54463 46 20 29
-2.51305 1.07637 8.52354 53 53 89
1.16045 -0.763851 5.93812 55 36 55
-2.58631 -1.07434 8.89418 62 45 55
-3.57704 1.07501 9.29398 76 86 113
-2.53709 0.981962 8.59304 149 175 236
-1.03925 0.692574 7.03686 79 34 41
-0.996452 0.585131 7.016 73 27 37
-0.547012 0.531414 6.59087 78 53 49
-3.55272 -0.260666 9.47871 25 36 82
2.57282 -0.0888659 5.59126 110 124 169
-0.646959 0.0034068 6.87554 201 191 164
-0.718797 0.497585 6.60945 56 44 54
0.00782991 0.0843746 6.43983 63 30 39
-0.762121 0.158623 6.77245 213 207 183
-0.654175 0.166895 6.75665 168 155 136
-0.751238 0.178899 6.75337 166 151 128
-0.718577 0.184173 6.75113 166 151 130
-0.794115 0.429752 6.61194 195 193 180
-0.747121 0.413108 6.63153 127 111 112
-0.139747 0.39223 6.52184 66 24 36
1.78608 1.74884 4.93424 98 106 125
-2.39077 -2.26081 8.87421 80 54 67
-1.57567 -1.23224 8.11519 129 103 116
-1.85632 1.40399 5.68632 79 46 67
1.57515 1.47438 5.308 78 62 75
1.01308 -0.548104 6.06135 113 112 128
-1.34325 0.965792 6.92252 86 45 61
1.62464 -0.863273 5.58634 87 68 90
-0.679215 1.34691 5.1506 138 91 107
-3.69312 1.96622 9.14924 76 96 129
1.8579 1.72466 4.90245 135 136 193
0.22502 0.844669 5.74259 69 32 39
-1.94124 1.04271 7.39339 78 44 58
-3.55009 1.30348 9.26377 28 32 67
-0.871466 0.899767 6.56186 52 54 103
-3.5718 1.26334 9.2697 77 100 131
1.73381 1.74801 5.00166 104 121 167
-0.587455 -2.17324 7.37228 134 131 116
-1.96022 1.78005 5.6196 113 114 134
1.72604 1.75335 5.0167 11 26 47
1.63383 0.640422 5.36671 128 114 129
-2.53736 0.944191 8.55561 107 135 198
-2.55856 0.946152 8.59717 91 106 161
-2.6102 0.949787 8.63437 110 106 157
-2.54663 0.935545 8.58721 39 43 78
1.75066 1.73938 4.99749 52 49 128
-2.53473 0.924961 8.57725 38 31 49
2.58506 0.499546 5.47681 159 173 210
1.41986 -1.49904 5.82375 55 31 55
0.475029 0.515751 5.87429 66 39 48
0.417084 0.520845 5.92134 96 53 73
-0.566952 0.547546 6.58086 54 29 35
-0.423747 0.527997 6.55126 64 20 33
-0.233245 -1.61344 6.62345 127 71 80
-0.37787 -1.63785 6.73339 78 35 45
-0.597645 0.519694 6.5766 179 166 160
1.68583 1.72399 5.05304 47 30 46
-0.679304 0.479767 6.63721 98 79 72
1.69873 1.70293 5.03689 52 34 48
-0.668032 0.464939 6.66546 102 86 86
-0.85769 0.422809 6.61707 153 141 143
-0.821137 0.375655 6.66001 125 115 113
0.204206 0.33156 6.26455 89 40 46
0.109963 0.325146 6.31128 58 21 28
-0.676145 0.322959 6.82834 144 128 102
-0.371524 0.249575 6.53757 81 36 43
-0.780513 0.148652 6.76754 209 195 168
-1.60255 1.73578 5.24693 152 184 245
1.6319 0.0431436 5.45107 75 51 67
-0.680791 -0.0115956 6.87798 141 126 107
0.977033 1.07014 5.83215 83 71 91
-0.761819 -0.221216 6.86685 61 30 35
1.8747 1.70061 4.89276 122 121 187
-2.53654 0.92598 8.58652 41 30 47
-2.61347 0.954871 8.64532 150 158 220
-2.56519 0.951452 8.61049 146 166 229
1.6798 1.71697 5.03458 53 32 49
1.78038 1.66135 4.9632 149 169 238
1.78694 1.65484 4.96386 19 37 111
-1.8129 1.73549 5.24576 167 178 232
-2.65446 1.13295 8.61957 51 44 75
-2.52258 1.13409 8.5571 26 29 64
-2.5716 1.1586 8.5957 153 164 218
-0.640361 0.158923 6.76292 181 167 140
1.69848 1.6204 5.0332 11 27 63
1.73755 1.6057 5.00915 51 45 119
-0.668475 0.463868 6.65527 102 86 86
-0.77209 0.431358 6.60805 210 207 192
-0.798977 0.428205 6.62512 192 192 180
-0.81255 0.399496 6.63435 96 94 97
-4.37183 -2.21545 9.96162 45 31 54
-0.539757 -2.15267 7.35162 141 129 113
1.11836 -1.72156 6.08633 67 50 69
-0.232074 -1.6131 6.62723 138 82 91
-0.893608 0.91991 6.61596 128 133 173
-0.736137 0.173431 6.78444 99 81 71
-0.171576 -0.991472 6.51605 40 19 24
-0.807008 0.372139 6.65877 177 169 158
0.29949 0.840418 5.69939 74 34 43
-0.692431 1.35292 5.13163 89 48 66
0.404494 -1.38966 6.59018 63 49 66
-3.58771 1.87344 9.21345 73 83 108
-0.467717 0.157996 6.65923 71 26 31
-0.6533 0.34933 6.80324 196 184 160
1.8703 1.61488 4.91595 148 168 231
2.39475 1.31556 5.30356 112 133 164
2.44466 1.28708 5.33232 74 97 138
-0.643955 0.158369 6.75594 178 162 139
-3.11278 -1.77817 9.34416 77 77 115
-2.60296 1.05309 8.58497 29 33 70
-2.65183 0.958894 8.68242 29 37 73
1.40398 -1.49565 5.82789 130 108 131
-0.567731 0.545532 6.56816 49 28 35
-0.283542 -1.65277 6.67071 91 38 46
-0.583112 -0.948764 6.63275 48 21 28
1.61971 0.0516801 5.46739 132 114 126
1.7972 1.66278 4.95548 149 174 240
1.85997 1.56983 4.91999 46 33 51
-0.762875 0.504933 6.60288 76 54 40
-2.5663 1.15244 8.55742 153 163 216
0.22562 0.845351 5.74852 85 40 47
-0.827209 0.387445 6.69205 111 105 107
-3.68065 2.02379 9.11721 88 89 110
-0.659162 0.482749 6.64509 166 157 142
-0.649582 0.290518 6.80748 149 137 113
1.86817 1.55779 4.89561 48 34 49
-0.67925 -0.00677782 6.86058 147 130 112
-0.590936 0.931127 6.34352 71 41 53
1.86373 1.57353 4.92289 29 20 37
-0.714894 0.498971 6.64874 79 63 64
1.8539 1.58476 4.92522 158 179 242
-2.52575 0.954692 8.58297 15 28 73
0.199693 -1.41133 6.73338 68 38 48
-0.75556 0.409145 6.62362 126 113 104
-0.539431 0.554679 6.62219 133 117 118
-1.6144 1.73862 5.24857 187 204 255
1.87943 1.59711 4.91346 15 21 35
1.71737 1.61095 5.01847 164 184 253
-3.55671 1.05936 9.27473 25 30 52
-0.592412 0.514721 6.54983 186 177 170
-0.768264 0.508292 6.59518 54 35 28
-0.7105 0.493945 6.61942 74 58 59
-0.768203 0.160964 6.75461 198 184 158
-0.753348 -0.149699 6.8665 49 23 22
0.166344 -1.35528 6.73992 41 21 23
-0.718772 0.312768 6.78914 124 102 78
1.08082 0.883458 5.78469 60 45 64
-3.58685 2.14447 9.19667 119 106 124
-3.69239 2.03428 9.13165 93 84 111
-1.1089 -1.78201 7.231 80 41 60
-2.01097 -1.80015 8.54813 126 113 130
-1.06863 -0.915833 7.04458 59 28 43
0.720982 -0.710946 6.26604 115 107 130
-3.58916 1.07737 9.32749 76 86 113
1.06663 0.693036 5.81696 79 61 83
-3.55394 1.24167 9.29717 71 69 109
0.159057 0.945487 5.78137 73 32 46
1.01841 1.25721 5.78632 126 123 144
1.71634 1.59679 5.03455 39 43 78
1.83718 1.71998 4.91003 36 65 135
0.299414 0.839572 5.68675 62 29 38
-2.52219 1.07935 8.55495 53 53 89
-2.58329 1.05157 8.60973 31 44 96
1.15695 -0.762581 5.92148 55 36 55
-3.5868 1.04073 9.33018 96 101 131
-0.062849 -0.343709 6.56542 74 33 41
1.38163 0.339654 5.6233 71 56 77
-0.596364 0.937259 6.36368 86 50 64
0.439023 0.801917 5.57286 82 42 51
-0.820022 0.917633 6.53388 130 138 184
-0.892483 0.911321 6.59142 129 125 162
-0.873163 0.901774 6.57525 52 54 103
-3.14561 -1.56786 9.40343 71 74 115
-0.480159 0.343972 6.62546 89 37 50
-0.550165 -0.94099 6.63088 72 28 41
-0.568445 0.536196 6.6084 130 119 113
1.88637 1.69749 4.89092 40 22 46
1.86646 1.60949 4.90317 123 145 205
1.84168 1.58229 4.93501 127 153 214
-2.10999 -0.0533861 8.38971 55 42 59
1.42643 0.127564 5.59748 45 34 51
-1.82626 1.73048 5.2484 49 36 64
1.82595 1.59472 4.94606 23 26 77
-0.822237 0.915299 6.54924 129 143 190
-3.59145 1.08792 9.3234 86 92 124
1.42106 -1.74832 5.87215 61 42 64
0.283193 -1.86207 6.77261 84 66 90
0.949882 -1.52819 6.1974 80 54 79
-1.46356 -1.85892 8.12724 60 46 72
1.16645 -1.24393 5.979 112 94 106
0.542496 -0.873408 6.4212 103 78 97
-0.818683 -0.0713882 6.95249 146 127 110
1.64677 0.00445304 5.44643 123 111 131
-0.647321 0.153105 6.74173 153 127 110
-0.76729 0.170953 6.75821 185 171 144
-0.617488 0.532002 6.59077 151 141 140
-2.61746 0.955514 8.67406 135 135 195
-2.63986 1.01185 8.66699 71 72 126
1.24516 0.730396 5.62872 77 120 215
-2.50915 1.07875 8.56077 69 52 70
-1.64109 1.01904 7.17054 80 38 48
0.977496 1.29382 5.81552 130 122 146
1.84445 1.72338 4.91764 45 76 143
1.90264 1.71033 4.8704 39 43 52
1.72387 1.7409 5.00276 22 40 86
1.83602 1.59188 4.94269 63 83 154
1.70981 1.59433 5.02724 24 32 68
1.69571 1.58736 5.04701 55 39 49
-3.56536 1.31623 9.35449 69 69 105
-3.5801 1.26778 9.30887 73 97 133
-2.63814 1.18257 8.64163 41 42 70
-3.56213 1.2462 9.32311 47 42 83
-2.65111 0.972193 8.68902 34 38 85
-3.14231 -1.56152 9.37797 76 89 133
-0.549828 -0.941372 6.64657 74 27 45
1.14956 -0.760487 5.90979 51 32 52
-3.56408 -0.261908 9.51797 31 50 92
1.09667 0.0526743 5.88178 70 46 68
-0.648461 0.0188041 6.84661 200 189 159
-0.792813 0.163556 6.77085 180 160 133
1.09024 1.25019 5.72634 125 125 149
1.64384 -0.585127 5.49982 60 43 61
1.29149 0.892919 5.6197 75 61 84
-1.94871 1.04809 7.41232 72 42 54
0.559054 -1.19346 6.44681 87 64 84
0.47315 0.55193 5.86196 55 33 46
0.412327 0.555189 5.911 70 36 50
-1.56264 -1.58811 8.17451 80 65 84
0.790509 -1.90034 6.38496 122 103 125
1.2496 0.80582 5.63328 66 108 210
1.0017 -0.564419 6.05129 60 51 68
1.15581 -1.55933 6.02052 86 63 83
0.604656 -1.43501 6.44779 83 66 85
-0.470072 -1.82591 6.72347 79 32 48
1.84645 1.57731 4.91253 159 179 240
1.41257 -1.50562 5.83554 119 91 114
-3.08974 1.82003 8.92603 55 46 63
-2.2114 -1.83664 8.70767 75 51 67
0.284122 0.858219 5.69902 74 32 44
-0.0913525 0.892078 5.98511 92 44 58
0.287031 0.847673 5.68636 121 76 83
-2.55081 1.16773 8.56374 32 36 63
1.43151 -1.0301 5.72484 108 96 106
-2.52345 1.08111 8.57731 55 51 88
-2.3511 -1.32969 8.752 56 43 61
-2.63552 1.01597 8.65266 51 54 109
-3.58028 1.03526 9.29295 91 100 131
-2.6298 0.951133 8.67038 46 38 75
-2.63935 0.94287 8.67753 43 33 58
-3.55325 -1.11994 9.5991 30 46 98
-1.99739 0.185707 7.67672 146 102 119
-0.718309 0.182559 6.74311 174 159 136
-0.854311 0.470138 6.61631 116 115 121
-0.591312 0.537527 6.56525 49 28 33
1.78824 1.66599 4.97693 155 170 239
-0.280479 -1.64944 6.65291 98 45 55
1.88138 1.59413 4.89429 25 32 48
1.29899 -1.17573 5.86615 56 45 62
-3.25214 2.14408 8.85202 33 36 53
0.544635 -1.15026 6.44023 74 52 73
-0.822761 0.427128 6.6092 131 120 118
0.93891 -0.984486 6.12983 83 53 65
-0.11876 0.366306 6.51971 69 23 33
0.112329 0.323964 6.32468 52 17 23
0.145824 0.960998 5.78832 83 41 53
0.810053 1.50504 9.01432 136 88 100
-0.223977 0.985538 6.07932 136 90 101
0.67374 -0.686079 6.30777 81 66 89
0.156901 0.939369 5.77284 97 47 58
-0.459129 0.923938 6.26918 104 57 73
1.7695 1.65713 4.95676 160 179 248
2.39755 1.31691 5.32662 82 102 126
1.00949 0.914341 5.82237 58 45 62
-2.54382 0.984218 8.61921 161 182 245
-2.64961 0.964347 8.67681 30 38 77
1.08549 -0.0170248 5.88028 139 119 131
-0.854859 -0.0386925 6.96351 147 124 110
-0.638231 0.0376726 6.85012 200 185 154
-0.125275 0.365234 6.50075 74 27 37
-0.754885 0.172572 6.74756 170 156 130
-2.56965 1.16214 8.64562 152 176 236
-0.677378 -0.185079 6.86418 41 21 23
-3.5681 1.32882 9.28457 32 54 95
1.63913 0.0319559 5.42927 123 106 125
-3.16232 0.251826 9.18473 72 75 110
0.108098 0.961552 5.79799 78 39 44
1.01679 0.916032 5.83757 58 45 62
1.08301 -0.812092 5.96829 135 113 126
1.88025 1.69779 4.87625 17 12 34
-0.228806 0.99396 6.06786 100 52 64
-1.71829 1.04372 7.23349 59 33 44
-3.59828 1.27516 9.33455 96 109 143
1.114 0.856821 5.76507 75 54 63
-2.54771 1.16855 8.59066 17 24 50
1.67481 0.300231 5.36644 126 113 130
-2.59883 1.08712 8.64154 162 180 246
-0.363166 0.633288 6.53716 67 24 31
-0.83389 0.367643 6.75271 188 183 189
-0.694021 -0.516925 6.92115 108 65 72
1.8655 1.6963 4.89034 153 170 240
1.82114 1.60294 4.96232 16 23 42
1.6487 0.0281233 5.44812 128 110 132
1.68634 1.45287 5.23811 72 53 72
-0.421996 0.634909 6.5625 76 29 37
1.16656 -1.22645 6.00358 120 101 120
-3.16409 0.249129 9.16505 66 78 120
-1.04036 0.208136 7.08776 65 25 34
-0.0772992 0.874873 5.98967 97 50 68
-2.6624 1.1361 8.64561 51 44 75
1.73598 1.60929 5.04 137 155 217
0.176973 1.11985 6.74088 106 56 67
1.8396 1.72343 4.93681 14 22 69
1.8797 1.56797 4.92474 48 34 49
1.61499 0.0440226 5.4761 132 115 133
0.334994 -1.74885 6.72417 62 43 65
-0.444808 -0.0783636 6.63039 68 28 36
1.16009 0.351887 5.80905 128 122 136
-1.64196 1.01995 7.17901 80 38 48
-3.1927 1.99248 8.94518 134 158 192
1.75475 1.74431 5.00431 68 71 150
-0.514539 0.916859 6.32346 73 39 53
-0.579072 -0.954516 6.65981 69 31 42
1.00969 -0.739209 6.08107 72 55 74
1.1997 -0.767374 5.9249 78 60 84
1.62995 -0.865196 5.59698 85 66 88
1.21222 0.326808 5.78204 70 46 68
1.40446 -1.36795 5.8382 107 98 119
-0.8472 -0.707683 7.04084 69 36 43
0.016674 0.518098 6.41241 73 31 41
-0.316979 -0.0357624 6.54797 73 32 40
-2.45207 0.183529 8.64686 56 48 71
1.71424 1.64135 5.05471 123 136 188
-2.53887 1.17552 8.55199 28 28 54
0.0802268 0.513128 6.36935 77 30 40
0.677279 -0.686784 6.32037 81 66 89
1.3228 1.6169 5.37986 79 64 87
1.85856 1.72769 4.92131 130 152 210
1.90449 1.71269 4.88225 20 23 32
-0.481198 0.347138 6.63049 85 39 49
1.87821 1.60381 4.92771 18 15 62
-2.54392 0.975193 8.58784 162 181 249
-0.365203 0.630413 6.51593 67 24 31
-3.15876 0.251168 9.177 85 81 116
1.7967 1.68629 4.97786 24 18 62
-0.932326 -1.45686 7.03409 81 30 45
-3.07757 -1.01154 9.28565 69 54 77
-0.523305 -0.523132 6.80287 54 23 29
-2.24534 -0.448419 8.5756 120 111 140
-1.74115 -0.429055 8.19279 114 97 116
-0.769123 -0.0336204 6.8705 211 200 180
-1.52779 0.262125 4.58181 60 17 27
-0.826603 0.475543 6.62902 129 127 132
-0.59016 0.541899 6.59456 67 52 59
1.17203 0.492983 5.82775 86 77 104
-0.438101 0.910293 6.28248 86 44 58
0.015151 0.891436 5.93013 94 55 73
1.00554 1.31101 5.83266 78 67 97
-3.18338 1.67041 8.97817 136 147 177
-1.63997 1.02125 7.18658 73 31 41
-2.55346 1.17008 8.58158 32 33 63
-2.53933 1.12285 8.57774 143 168 232
-2.52163 1.08237 8.56806 40 40 76
-2.62642 0.951599 8.66946 50 38 78
-0.772946 0.498126 6.62802 118 105 86
-0.82609 0.456353 6.62649 46 36 27
-0.849757 0.449412 6.63007 100 88 74
-0.304076 0.332725 6.52744 70 24 35
-0.881093 0.0715092 6.98135 157 135 121
-3.06738 1.6438 8.90291 44 41 62
-1.48751 1.73657 10.9451 66 35 51
-1.94689 1.04951 7.42107 57 34 44
-2.16766 1.04726 7.57894 49 32 40
-2.61783 -0.886957 8.88422 66 44 57
1.10467 -0.835495 6.03867 60 44 57
-0.413812 0.256774 6.61964 75 28 34
-0.42213 0.356702 6.62504 71 29 41
-0.702053 0.282928 6.85834 120 98 75
0.0118488 0.983339 5.92128 95 49 62
1.27425 0.325572 5.75248 87 66 85
1.71408 1.44506 5.25704 83 84 102
0.975646 -1.05728 6.1579 88 63 82
1.5499 -0.82223 5.68713 132 115 133
1.16776 0.327673 5.83143 120 107 125
1.21985 0.326926 5.78971 77 54 72
1.29627 0.89806 5.66005 85 63 84
-2.10327 1.17563 7.53513 68 35 46
0.350764 -1.73674 6.7443 83 71 93
0.571002 -0.847395 6.44911 101 72 94
-0.447947 0.918276 6.28215 131 85 96
1.9021 1.70411 4.90716 57 36 77
-1.08681 0.696273 7.08927 75 25 36
1.42949 -1.51339 5.85998 100 76 100
-3.22924 2.14343 8.77338 116 134 148
-0.891153 0.913846 6.61036 119 123 160
-2.64288 1.10742 8.62873 43 49 107
-2.66114 1.13156 8.63782 38 35 66
-2.64223 1.1303 8.62816 145 147 206
-2.55997 1.15452 8.55359 153 168 225
-2.61477 1.16318 8.61386 145 143 193
1.32266 -1.21533 5.91049 117 95 108
0.461972 -1.65239 6.65421 72 54 76
-0.815943 0.921441 6.55519 130 137 179
0.462526 0.817446 5.59829 98 67 75
-0.132823 0.892733 6.04407 107 67 75
-3.06667 2.04651 8.7692 80 68 90
1.34067 -1.02094 5.87873 68 50 74
-1.96433 1.06666 7.41973 73 41 54
-2.67264 1.14997 8.67044 42 44 67
-2.52541 1.13028 8.56014 14 28 73
-2.65286 0.972386 8.69289 38 46 85
-2.53799 0.924214 8.59999 37 28 47
1.43665 -1.50739 5.84318 46 29 48
1.42656 -1.50438 5.85306 128 108 133
-1.03402 0.691216 7.04599 82 35 45
-0.545811 0.55968 6.61564 126 111 106
-0.581161 0.514242 6.6086 192 187 183
-0.804393 0.481067 6.63088 128 124 125
-0.853477 0.470148 6.62029 108 107 113
-0.728891 0.174668 6.77672 100 81 67
-0.357233 0.148146 6.5922 58 25 34
0.433052 -1.43431 6.65107 71 56 75
-0.585038 0.94523 6.40589 68 46 59
-0.701532 -0.00633577 6.91094 133 107 80
-1.60055 1.73042 5.21485 202 215 255
1.74295 1.75287 5.0152 87 110 160
1.71527 1.71334 5.05877 48 30 44
-2.51983 0.959618 8.577 16 21 59
-3.1997 1.99411 8.92978 155 170 201
1.73664 1.61022 5.04045 167 192 255
-2.5178 1.13372 8.53692 19 18 34
-2.71422 -0.421789 8.91468 111 99 119
-0.340917 0.537016 6.51465 129 76 84
-0.987853 0.391707 7.02182 61 26 33
1.65582 0.034906 5.465 121 109 129
-0.655621 0.275695 6.86077 129 113 88
0.0856652 0.0795282 6.43995 66 24 36
-2.57862 1.0539 8.6012 16 36 89
1.8748 1.73419 4.96173 24 40 91
1.87857 1.56944 4.91444 24 22 36
-3.19588 1.68183 8.98894 81 99 137
-1.06392 -0.916328 7.05151 54 23 38
-0.476352 -0.930964 6.60033 49 22 29
-0.628849 0.260484 6.87711 105 84 63
1.11706 -0.822959 6.02407 139 112 127
-1.60854 1.72237 5.19525 208 221 255
1.848 1.72466 4.94477 17 23 57
-0.418322 0.631938 6.56142 74 24 33
-1.84387 1.74044 5.26581 45 43 67
-0.363234 0.626502 6.51462 65 22 31
1.71975 0.302498 5.42116 133 114 133
1.54652 1.48165 5.40594 120 106 119
1.86376 1.72502 4.9269 145 170 234
1.79918 1.68774 4.97822 26 20 64
-0.666009 -0.18702 6.91305 37 15 17
1.67185 0.0509983 5.48628 61 49 63
1.89844 1.635 4.94328 167 184 253
0.960626 -0.32466 6.07789 54 41 51
0.98486 -1.03768 6.1688 66 48 60
1.56704 1.47817 5.37692 123 107 120
1.86825 1.73771 4.91572 43 25 63
-0.597066 0.939201 6.37151 86 50 64
1.75542 1.73634 4.99715 30 24 94
-2.53416 1.1191 8.54043 143 169 230
-1.40883 0.636206 4.50042 58 34 47
-0.308404 0.87493 5.40667 121 75 85
-0.850124 0.476033 6.69965 120 119 127
-0.422576 0.256525 6.59292 74 27 37
1.53375 -0.820795 5.67383 132 117 136
1.32026 1.61644 5.38195 91 76 97
-0.376281 -0.080893 6.57577 62 23 28
0.071553 0.0787165 6.41201 74 33 41
1.41465 0.12794 5.63119 69 50 69
-0.145537 0.221085 6.56781 73 31 41
-0.811639 0.478547 6.60727 103 101 106
0.150275 0.951451 5.79246 136 88 100
1.09566 -0.811991 6.0006 140 120 132
1.79737 1.68016 4.97661 39 23 94
1.63506 0.642607 5.39855 59 48 65
0.274311 1.10942 6.64304 78 39 44
1.54805 1.4734 5.36273 125 108 124
1.88447 1.63041 4.92832 144 147 214
1.50087 -1.03123 5.69881 54 40 53
0.961668 -1.53536 6.21853 70 47 67
-0.757504 0.158193 6.77347 216 205 183
-0.31158 0.330448 6.50496 70 24 35
-0.630412 0.484833 6.61591 190 184 172
-2.55254 0.933204 8.56628 47 48 76
0.384942 0.8547 5.6337 73 41 56
-1.71072 1.11946 7.19865 67 36 52
-1.11289 1.08208 6.75605 87 44 63
1.94727 0.840399 5.13868 106 90 103
-0.85435 0.44718 6.60857 100 88 74
-1.15112 0.403821 7.1387 60 17 27
-0.474561 0.345183 6.62867 65 22 31
-0.779489 0.166729 6.76808 154 132 109
-0.986388 0.0238574 7.06047 56 21 27
-0.501478 -1.46131 6.53173 75 32 51
-2.17523 1.05541 7.55678 92 65 70
-2.10726 1.03564 7.5055 56 30 33
0.556782 -1.15407 6.46941 66 47 66
-1.04251 -0.933641 7.02208 77 45 60
1.10571 1.25599 5.75035 131 127 150
-1.04792 -0.0201794 7.08839 64 33 41
1.15969 0.327742 5.81885 120 107 125
0.150327 0.876037 5.81085 68 41 48
-1.09112 0.693283 7.06219 75 25 36
-2.65994 0.950227 8.65222 47 53 77
-0.883534 0.0513034 6.96413 158 136 123
0.449626 0.805984 5.59289 68 32 44
-2.36937 -0.415612 8.61583 52 44 68
1.27677 0.66478 5.67716 68 55 73
0.295909 0.849838 5.70471 119 72 80
-0.532164 -0.521436 6.7699 58 25 32
0.00852859 0.50595 6.41327 118 71 79
-2.50736 0.950881 8.53848 41 30 46
1.19666 -1.25508 6.0046 42 28 45
1.64303 0.051139 5.48286 132 112 121
-0.592972 0.940471 6.37627 68 46 59
0.111122 0.96374 5.82141 106 53 61
1.84821 1.72598 4.93981 14 27 69
-2.63787 0.979796 8.62319 152 154 213
1.72576 1.63607 5.07083 30 38 74
-2.54447 1.09001 8.52523 16 37 102
0.213143 0.335266 6.28667 60 23 31
-0.368696 0.149707 6.556 58 25 34
0.960016 -0.990934 6.15987 67 41 52
0.235151 0.844243 5.75342 95 54 62
-2.54176 0.929743 8.58134 22 25 42
1.7907 1.66713 4.99371 165 182 251
-0.585703 -0.950583 6.66276 46 23 31
1.76811 1.61798 5.02376 18 20 59
-0.306517 0.988476 6.12588 78 35 44
-0.978567 -1.43651 7.00098 82 35 51
1.34694 -1.44921 5.87099 102 72 98
1.04523 -1.25376 6.09134 120 118 132
-2.7726 -1.05298 8.97846 67 42 61
-1.61616 -1.0845 8.11885 55 39 65
0.532371 -0.873015 6.42652 110 85 106
-2.97809 -0.606317 9.05845 100 76 102
-0.771396 -0.617108 6.93261 82 38 51
-0.961211 -0.497679 7.0781 64 27 35
-2.30804 -0.444989 8.52986 126 102 126
-1.73791 -0.456402 8.10103 67 54 74
-0.649631 0.0944475 6.78386 220 214 188
-0.802158 0.154133 6.75921 171 155 132
-1.10582 0.313377 7.08906 73 28 35
-0.718591 0.283419 6.81817 130 110 86
1.15938 0.351984 5.80832 132 123 140
1.42459 0.368207 5.57211 106 82 104
-2.61923 0.948054 8.59448 164 165 229
-2.15582 1.08446 7.49196 109 97 109
-2.59009 1.27424 8.51819 105 98 114
-1.50048 1.11308 7.0126 94 46 60
-2.2273 1.56334 8.23671 55 41 54
1.08494 1.25125 5.7369 130 126 149
1.75454 1.42909 5.19436 116 118 143
1.69144 1.43836 5.23918 91 90 104
0.216425 1.51528 5.63346 65 37 51
1.87009 1.58078 4.93981 32 24 65
0.315601 -1.73988 6.69801 68 45 73
-1.71988 1.7279 5.22211 181 198 250
-1.95728 1.77713 5.60669 134 142 163
1.87704 1.74129 4.9195 51 36 69
1.73687 1.7486 5.0267 17 39 89
1.69819 1.73081 5.06939 52 34 50
1.71651 1.71426 5.05934 32 27 50
1.79743 1.67088 4.99082 171 186 253
1.88329 1.61878 4.92495 145 153 215
1.89971 1.6029 4.91674 38 45 61
1.74428 1.61285 5.02871 66 59 136
1.7071 1.59534 5.0667 44 28 41
-0.229679 0.975091 6.064 105 57 69
1.29195 0.894233 5.63225 76 60 86
0.232058 0.86279 5.72424 64 34 44
-2.15252 1.08531 7.50213 110 104 118
1.3165 -1.01501 5.85408 67 47 74
1.05695 0.693645 5.81749 75 56 78
-2.54204 0.989443 8.5215 24 35 99
-2.64459 0.998577 8.59775 51 55 118
-2.641 0.928517 8.60185 42 32 56
0.405751 0.522391 5.91849 86 47 65
0.657859 -0.683093 6.29624 80 66 91
-2.37613 -0.412345 8.57252 51 37 62
-0.831292 0.486196 6.5859 184 178 164
-0.846308 0.446998 6.61942 96 80 65
5.16948 0.194455 16.8633 68 26 36
-0.436396 0.255928 6.57665 63 20 29
-0.708699 0.272365 6.81287 87 65 42
-2.41403 0.911023 8.42854 129 113 126
-1.86723 1.39668 5.659 76 45 61
-2.10806 -1.38325 8.5016 88 69 88
-2.23198 1.56225 8.225 48 32 45
-0.607216 1.0293 6.34655 90 47 66
-0.751093 1.04392 6.45281 86 44 58
-0.505795 -0.953652 6.57895 156 102 116
0.428678 -1.53379 6.59534 87 63 85
-1.47734 -0.607752 7.49082 53 28 34
1.51854 -0.800434 5.66681 71 52 74
-0.1553 -0.0113999 6.58319 72 30 40
-1.69655 0.588827 7.68721 69 24 31
1.24503 0.792257 5.63803 74 118 217
1.16258 0.339429 5.79083 72 51 68
0.131663 0.873971 5.79508 85 50 57
-2.01742 -0.930628 8.3786 78 54 70
-2.23103 -0.898735 8.52584 111 93 105
0.547595 -0.840856 6.41737 104 74 98
-0.828316 0.941658 6.53183 76 38 51
1.38089 1.4742 5.48009 118 114 141
-2.64776 1.17089 8.54666 44 50 76
-2.53082 1.11592 8.48503 28 33 73
-2.54677 1.11125 8.49092 147 172 238
-2.52876 1.0704 8.4877 30 35 73
-2.59149 1.04392 8.52668 31 51 112
-2.65586 0.966294 8.61398 29 36 78
1.38831 -1.49071 5.82327 130 114 141
-1.1069 0.68906 7.03616 84 35 41
1.8577 1.72915 4.94407 12 35 102
0.00849202 0.515608 6.39615 81 35 45
-0.658454 0.489423 6.61049 186 177 168
1.86221 1.60621 4.92323 101 103 178
-0.859011 0.443461 6.58723 96 80 65
-0.875662 0.444461 6.59402 68 54 43
5.15641 0.192278 16.8459 79 36 46
-1.96505 1.0511 7.37452 108 75 84
-0.151607 0.887018 6.01535 119 79 88
1.09813 -0.0670992 5.90064 78 53 75
1.14483 1.54269 5.65695 125 109 122
-1.28944 -1.18821 7.85719 50 38 58
-1.86384 1.34872 5.67452 71 37 53
-0.596655 1.0088 6.34033 97 54 74
-0.736899 -0.07147 6.83284 187 176 154
-0.14607 0.376543 6.51477 123 70 80
-1.53562 0.739665 7.5406 71 28 38
-1.32426 0.205444 7.43835 82 45 53
1.74428 1.75332 5.01619 146 166 217
1.90186 1.70438 4.90435 30 18 42
1.87495 1.60878 4.92903 70 67 144
1.86909 1.58686 4.95043 100 115 172
-2.53487 1.10897 8.5016 99 118 176
1.52596 1.47195 5.37512 120 102 116
0.094709 0.961685 5.80735 92 47 50
0.141163 0.950532 5.78479 137 87 99
1.00546 0.914629 5.8302 60 46 61
1.69612 0.300553 5.39866 128 113 132
-0.00677928 0.885095 5.90588 84 48 62
1.25169 0.82544 5.64115 87 126 217
-0.830448 0.407879 6.62686 113 108 112
-2.64003 1.17665 8.58234 30 34 61
-2.53053 1.06811 8.47535 30 35 73
-0.561495 0.557039 6.58433 124 108 109
-0.779632 0.497458 6.62144 130 120 110
-0.849933 0.448279 6.63133 117 105 89
-0.0485625 0.0865966 6.46515 77 34 44
-2.61404 1.04437 8.54224 24 20 55
-2.548 0.995579 8.50831 18 34 96
-0.829474 0.488185 6.59861 190 187 170
-1.15067 0.594537 7.08977 68 26 36
-2.51494 1.07631 8.53595 47 39 60
-0.131208 0.908991 5.99151 134 91 100
-0.347129 1.00572 6.14425 93 47 58
1.70616 1.62399 5.06102 15 20 39
1.83598 1.601 4.96484 20 28 75
0.404872 -1.4207 6.60861 64 50 67
1.55418 1.4748 5.3661 123 109 122
-0.4896 0.937663 6.26581 141 93 107
-1.65603 1.01178 7.13312 72 30 40
-2.56464 1.14665 8.51152 162 179 235
-2.54718 0.96954 8.51664 169 186 255
-0.436044 0.62515 6.52847 91 35 44
1.62805 0.0478814 5.47363 144 124 135
1.87684 1.73829 4.90812 19 18 34
1.87626 1.70382 4.9111 159 176 245
-0.775229 0.504305 6.5879 52 35 25
-2.55405 0.925742 8.53218 23 30 49
-2.62473 0.945725 8.57071 143 139 200
1.72158 1.60371 5.05966 19 20 38
1.90686 1.71334 4.89209 17 19 31
-1.48453 -1.37771 8.05712 62 35 44
-2.12208 0.124055 8.34128 44 33 49
-0.405639 0.639442 6.51555 135 79 92
5.25232 0.202314 16.9691 60 27 36
-0.114868 0.904478 5.99407 137 91 104
1.72946 1.61792 5.04175 175 193 255
-0.129224 0.900418 5.98573 140 89 104
-0.195109 -0.989937 6.52748 42 22 31
0.00130507 -0.931302 6.28892 65 28 36
1.65225 0.0277761 5.46274 125 111 134
-0.912437 -0.463498 6.60489 120 71 77
0.297235 0.839585 5.6918 72 36 46
1.70562 1.71061 5.05672 52 34 48
1.79993 1.66963 4.9748 145 173 238
1.78865 1.67005 4.98642 149 167 233
1.85949 1.72868 4.92495 140 160 221
1.87874 1.57045 4.92785 36 24 38
1.89226 1.70496 4.89981 18 11 29
1.87893 1.70502 4.9113 149 160 224
1.79255 1.65969 4.99108 14 24 85
-0.88911 0.918963 6.5987 120 132 174
0.443351 0.805171 5.58605 67 31 43
-0.419316 0.627103 6.54245 84 31 41
-1.94454 1.04296 7.38345 72 42 54
1.87768 1.6163 4.92285 148 167 226
1.84526 1.5979 4.96372 66 71 137
1.58093 1.47696 5.32203 77 55 68
-0.822835 0.427985 6.63839 152 143 136
0.272364 1.05531 6.38875 136 88 100
0.780455 -0.893169 6.25057 94 69 91
-0.762574 -0.619165 6.9398 77 35 45
-0.314733 0.330671 6.49466 70 24 35
-2.55128 0.929857 8.54503 47 48 76
1.75233 1.76323 5.03609 18 32 59
-0.460018 0.926969 6.26863 78 40 55
-2.5363 0.91233 8.53096 43 36 54
0.018694 0.517201 6.40421 79 34 41
-1.44046 0.219259 7.56498 58 25 34
1.70307 1.44122 5.2441 83 84 102
1.72009 1.71442 5.0607 41 29 51
1.80694 1.67166 4.9972 159 176 245
-1.09294 0.691531 7.05086 75 25 36
1.73637 1.61163 5.04797 138 174 236
1.41447 -1.50726 5.83848 100 76 100
-2.5334 0.913761 8.54368 48 35 53
-0.516424 0.914028 6.3104 72 36 46
-0.225992 0.996816 6.08304 81 38 55
-2.53242 0.969713 8.52963 159 182 249
-2.50606 0.946593 8.51407 41 30 46
-2.55554 0.939806 8.53792 147 165 229
1.90326 1.70295 4.90565 60 41 71
1.88851 1.61894 4.92611 126 144 206
-0.170334 -0.995481 6.53224 47 21 30
0.552506 -1.15511 6.45748 63 50 70
-2.63642 0.974971 8.6019 152 154 213
0.0101384 0.517055 6.3961 64 31 40
-0.483063 0.345635 6.61452 73 28 35
1.42051 -1.75239 5.87357 71 51 78
-2.58661 1.06788 8.53907 155 174 242
-0.423162 0.630526 6.54464 74 24 33
1.81588 1.66904 4.97495 151 178 245
1.88033 1.58238 4.93652 18 17 49
-1.29215 -1.20544 7.84645 59 45 68
0.550132 -1.17406 6.45021 102 86 115
-2.17904 -0.92057 8.48437 60 37 55
-0.879764 -0.0137118 6.94853 146 125 106
-2.62998 0.941164 8.57314 69 52 97
-0.88031 0.900835 6.56413 68 65 112
-1.73159 1.00001 7.20726 87 43 58
-1.95948 1.04119 7.36028 63 35 47
1.80189 1.67983 4.98049 51 44 122
1.87468 1.74068 4.91785 51 36 69
1.71663 1.71438 5.05971 32 27 50
1.88162 1.61796 4.92379 145 153 215
-2.54744 1.09467 8.48226 30 48 114
-0.380163 0.62133 6.49398 86 34 46
1.153 0.436555 5.79602 64 47 65
-0.378758 0.521396 6.50351 60 20 28
-0.772709 -0.210184 6.87518 150 133 115
-0.655841 0.0756905 6.79056 209 200 171
-0.488989 0.345935 6.61024 65 21 36
-0.44353 0.1541 6.59808 77 37 46
1.69408 1.43931 5.24126 91 90 104
-1.10247 0.591225 7.05509 73 27 37
-2.11536 -0.0509246 8.33836 53 37 50
0.374681 0.942216 5.6149 85 43 57
1.6511 0.00346245 5.45995 127 115 135
1.24516 1.49342 5.56998 103 81 104
1.38387 1.47412 5.4828 118 114 141
-2.55853 1.15602 8.48898 18 23 43
-2.56596 1.14434 8.48151 158 177 235
-2.62332 1.15163 8.53439 144 142 192
0.223118 0.84497 5.74492 57 29 41
-2.53132 1.11671 8.47915 28 33 73
-2.64869 1.10215 8.56336 29 37 100
-2.59197 1.04311 8.52051 31 51 112
1.86474 1.73067 4.92621 152 170 232
1.40159 -1.50396 5.83297 118 94 118
-1.10657 0.689559 7.03701 84 35 41
-0.845939 0.47353 6.59048 134 128 132
0.937435 -0.984381 6.14858 79 48 63
-0.146847 0.888901 6.0226 119 79 88
1.17534 -1.1822 5.97823 72 48 70
-0.433618 0.254644 6.57874 75 28 36
-1.90158 1.40338 5.69411 71 39 54
1.89376 1.60044 4.91627 23 32 47
0.539697 -1.15254 6.44973 63 50 76
-0.238965 0.9952 6.07486 90 42 54
-0.463184 0.914521 6.25589 141 97 110
-2.54713 1.16961 8.47232 28 28 56
-0.791411 0.49543 6.5956 130 120 110
1.65632 0.0359263 5.45815 124 100 122
1.639 0.0359178 5.45074 124 109 128
-2.64823 1.11975 8.55488 156 160 221
-2.51868 0.943037 8.48623 33 26 42
1.42276 0.126465 5.61068 47 32 53
1.72626 1.60882 5.04478 118 150 209
0.227914 0.854331 5.73653 108 70 83
1.84099 1.60248 4.96842 20 28 75
1.49849 1.54183 4.87846 120 161 223
1.63183 0.642318 5.39225 59 50 69
0.232799 0.844732 5.75744 95 51 64
-2.66483 0.946871 8.60759 30 38 61
-2.44314 0.166173 5.26367 150 104 117
-0.379183 0.147898 6.54649 64 26 37
-0.870577 -0.0399592 6.93466 158 135 121
-2.5474 0.970068 8.51424 165 184 252
-0.429949 0.629477 6.53956 66 20 30
-1.29611 -1.18157 7.8398 47 32 53
-1.52061 -1.0857 7.99964 93 64 82
-0.777741 -0.614679 6.92361 77 33 48
-0.331636 0.330917 6.48231 64 22 32
-0.882034 0.443067 6.58529 82 68 57
-2.56878 0.926416 8.50961 56 53 80
-2.56845 0.936047 8.50069 143 167 229
-2.55113 0.979564 8.47937 39 56 126
1.24837 0.716399 5.64777 74 118 217
-2.63925 1.15307 8.52001 26 16 41
-2.63154 1.15633 8.53518 46 31 64
-0.369673 0.922162 6.18629 91 48 65
-1.87576 1.14417 7.2857 87 39 53
-1.73653 1.1321 7.17993 88 44 61
1.41645 1.05655 5.51648 65 53 77
1.15243 1.54373 5.65741 133 117 128
1.8705 1.59267 4.95866 159 185 246
1.85898 1.59993 4.96566 68 85 154
1.84752 1.60111 4.96663 29 38 103
1.87988 1.61106 4.93064 69 71 146
-0.572648 -0.932418 6.61328 73 25 39
-1.96135 -0.678723 8.27624 72 57 76
-1.77169 -0.47749 8.11719 100 83 101
-0.970375 -0.495629 7.06406 64 27 35
-0.552549 -0.514788 6.74468 63 28 35
-1.24479 -0.212868 7.42134 57 27 37
-0.347818 0.144855 6.51696 79 33 43
-1.11115 0.314846 7.08029 63 22 30
-2.33638 0.610087 8.39757 84 62 83
-0.871871 0.443887 6.59758 76 62 53
1.67339 0.303225 5.38353 137 120 139
-2.7671 0.732262 8.67312 53 44 65
0.421618 0.496418 5.9473 103 61 81
1.05731 0.698505 5.83632 140 128 148
0.439721 0.805876 5.58427 62 34 48
-2.54771 1.17058 8.46978 33 29 54
-0.154102 0.881237 6.02639 69 37 50
-0.828761 0.941961 6.53121 69 35 49
-1.28105 0.981351 6.8591 83 37 50
-1.12753 0.989719 6.74058 96 53 73
-1.26638 0.76974 5.04146 100 49 66
-1.12923 1.07813 6.73141 86 44 58
1.38795 1.47487 5.48434 123 119 146
1.5874 1.47886 5.32411 90 67 85
1.13558 1.53991 5.64848 119 105 118
1.73121 1.6106 5.04649 155 190 248
1.90014 1.60423 4.91724 37 49 65
1.71149 1.6314 5.06143 37 48 94
1.72132 1.71525 5.0611 39 30 57
1.89745 1.70249 4.90403 60 39 80
1.91431 1.71621 4.88972 40 44 55
1.87155 1.74016 4.91701 48 31 67
1.75675 1.74144 5.00493 35 37 122
-2.68522 1.13485 8.55813 37 39 60
-2.65264 1.118 8.55127 156 162 222
-2.66663 1.10345 8.54384 124 127 168
-2.63613 0.940621 8.56962 52 37 78
-0.638431 0.0928166 6.79674 210 200 173
-0.768462 -0.221175 6.85402 142 118 106
-0.768368 -0.220642 6.86434 62 31 26
-0.840125 -0.181221 6.97984 50 23 30
-0.520344 0.92163 6.29585 107 71 81
-1.06782 -0.0174133 7.05683 60 27 38
-0.138912 0.889707 6.02742 129 85 100
-2.19674 1.06054 7.53642 54 31 39
0.283856 0.837483 5.6853 84 38 49
-1.4587 0.218535 7.54197 78 35 44
0.136391 0.072728 6.34517 57 27 37
-2.1794 1.03688 7.52386 61 38 44
-1.59321 -1.21383 8.10234 92 64 79
-1.28384 -1.22963 7.85256 50 35 58
-0.436745 0.527774 6.54827 64 24 35
-1.15326 0.594485 7.08179 61 24 32
-1.54243 0.738644 7.52661 64 27 35
-1.97049 1.04842 7.36169 124 82 92
-1.60887 -1.20644 8.07386 77 55 67
-0.915257 0.923935 6.57426 129 117 153
-2.53354 1.11518 8.47432 22 30 69
-2.67238 1.11761 8.55669 27 25 49
-2.59433 1.04209 8.51514 20 42 100
1.86579 1.60459 4.92567 80 78 153
-0.493264 -0.927907 6.56452 69 37 48
1.70979 1.5972 5.06793 43 27 38
-0.949555 -0.480918 7.03821 62 27 34
2.64393 1.388 7.87682 138 88 99
-0.642024 -0.4793 6.83718 108 68 76
-0.845023 -0.167708 6.97124 82 60 49
0.139134 0.96183 5.79095 93 41 53
-0.772818 0.425402 6.60138 209 204 200
-1.12899 -0.0129859 7.11079 62 27 34
-0.128262 0.366167 6.51314 56 18 31
-1.27227 0.784988 5.04791 75 34 48
1.29143 0.895407 5.64891 76 57 76
1.82209 1.72 4.93534 17 26 67
1.89093 1.57536 4.93208 25 23 37
-1.65533 1.01944 7.11877 107 66 72
-0.536221 0.91411 6.29551 53 30 38
-1.0538 0.584382 7.0086 56 20 30
-0.813233 0.494379 6.57733 139 130 125
-0.853403 0.485261 6.56698 188 180 159
-0.907649 0.47194 6.62222 89 82 89
-1.05851 0.312027 7.04334 61 23 36
-0.438612 0.156673 6.59533 56 23 34
-0.868068 -0.040373 6.93936 164 143 126
-0.835157 0.91589 6.5221 132 139 185
-0.891702 0.425301 6.59704 200 198 203
-0.902633 0.42157 6.63373 174 170 171
-0.823832 0.405241 6.63156 102 99 106
-0.701075 0.546008 6.57369 131 114 130
1.53738 1.4766 5.39039 119 106 123
-2.58219 1.13521 8.44581 158 175 244
1.85778 1.58493 4.94633 107 123 182
1.74435 1.60783 5.07083 20 25 47
-2.64715 0.93564 8.55204 26 22 39
-2.67911 1.1336 8.57078 24 29 48
-2.55252 1.10755 8.48919 148 175 242
-0.528153 0.91294 6.30883 79 41 52
1.75589 1.61333 5.0181 26 20 68
-2.55393 0.929538 8.52193 17 25 48
-1.10576 0.59626 7.05693 54 24 34
-0.780863 0.162449 6.74401 220 208 184
-0.876222 0.555436 6.745 30 25 29
-0.709011 -0.18288 6.83952 46 27 21
1.84908 1.7189 4.92435 158 182 246
1.81607 1.72058 4.94756 17 25 46
1.71253 1.61307 5.03364 173 198 255
1.80825 1.60562 4.97049 17 23 45
1.77931 1.6465 4.98409 19 23 61
-1.08039 -0.903498 7.00239 55 25 35
-0.640118 0.491396 6.59459 212 203 186
1.71 1.64006 5.05314 120 136 188
1.70351 1.62788 5.06318 18 21 40
1.0033 -0.736251 6.06247 72 55 74
1.85532 1.59112 4.94905 156 185 251
1.89206 1.70858 4.90016 20 10 45
-2.16576 -0.924841 8.4809 62 42 54
-0.617502 0.519248 6.56195 109 83 84
-0.472565 0.156767 6.61339 56 18 29
0.514856 -1.18995 6.47943 67 46 63
-0.845957 0.470794 6.6422 84 78 90
-1.2919 -1.18826 7.82127 105 90 109
-2.60789 1.0564 8.49327 166 180 243
-0.839992 -0.46742 6.9534 115 64 73
0.243877 0.40347 8.04803 63 21 33
1.71751 1.7482 5.02833 16 24 43
0.125027 0.830302 5.79717 75 41 57
-1.58513 -1.0055 8.01025 91 62 80
1.17512 -0.7621 5.90402 81 62 84
-1.17759 0.0377548 7.13659 52 21 29
-0.645895 0.529483 6.55112 178 165 157
-2.61141 1.03269 8.48623 162 171 226
-2.45742 1.56255 8.33348 43 33 44
-2.67045 1.10134 8.52738 124 127 168
-2.65544 0.920948 8.54047 39 29 53
-0.827764 -0.080956 6.90567 143 118 113
-2.58066 -0.397785 8.64388 117 105 129
-1.1547 1.42986 5.10324 69 41 56
-1.96894 -0.677035 8.25238 57 42 63
-0.865298 -0.0577211 6.91299 150 133 115
1.29722 -1.01062 5.843 76 58 84
-1.22451 0.970505 6.78391 84 46 61
1.61334 0.0512681 5.46608 140 122 134
1.57249 1.47606 5.31767 86 62 78
1.68315 1.72446 5.06154 71 47 60
-1.14422 0.908302 6.81702 86 42 57
-0.119009 0.888089 5.96696 110 60 72
-1.06927 0.208199 7.03129 53 22 28
-1.66671 1.39743 5.48929 102 49 65
1.63389 0.0468933 5.45899 69 48 63
-2.56665 1.07947 8.43732 15 26 80
-2.53775 0.95042 8.4554 19 20 41
-1.8041 -0.721683 8.13985 35 28 46
-1.07448 0.683831 6.96691 71 27 40
-0.666777 -0.479981 6.80636 119 70 76
-2.57937 1.13817 8.45266 155 173 237
-2.6505 1.15037 8.50756 16 14 28
-1.01255 0.390666 6.97302 50 19 27
-0.898954 0.553725 6.71332 30 25 29
-2.01112 1.06812 7.34797 111 70 76
1.38135 -0.175501 5.66709 66 43 61
-1.32763 -1.19071 7.8018 64 50 73
-1.31618 -0.871818 7.10762 69 27 39
-2.85243 0.165317 8.75837 62 54 77
-2.50276 0.152726 8.5019 117 109 130
-2.85063 0.21439 8.76496 100 96 119
-2.03198 0.278024 8.15493 62 49 69
-2.00867 0.276983 8.12183 79 53 78
1.11997 0.436615 5.77996 65 48 67
-2.55462 0.956176 8.43479 18 31 83
1.66482 1.72359 5.05852 65 44 59
1.785 1.66745 4.97053 173 194 255
1.8469 1.58431 4.93629 165 175 236
1.68709 1.59303 5.06044 50 32 48
-1.67871 1.01745 7.09082 129 79 88
-2.70217 1.12779 8.51904 29 34 56
-0.916969 0.134889 6.89248 153 132 113
-1.19532 0.219329 7.08474 52 22 34
0.111377 1.00612 5.76095 98 60 75
-1.91429 1.05042 7.24822 92 51 69
-0.950225 0.451662 6.60712 75 58 50
1.25988 0.891785 5.62118 73 60 90
-1.04469 0.579688 6.94547 61 23 36
-2.39914 -0.404447 8.49777 114 95 115
-0.905096 0.0874329 6.76093 152 133 119
0.224175 0.749794 5.85569 152 105 121
-0.94361 0.942139 6.54803 86 45 59
-0.884058 -0.480071 6.94042 70 28 40
1.85306 1.73488 4.91288 49 29 78
1.88163 1.71006 4.88567 30 34 46
1.84661 1.60245 4.92165 74 67 145
1.87747 1.59791 4.91193 44 51 70
1.82613 1.5857 4.94608 157 186 244
1.67086 1.58968 5.05847 70 49 64
1.11243 0.350644 5.79148 144 137 153
1.83829 1.5735 4.93181 42 30 66
1.33546 0.34124 5.62267 86 65 84
-1.92427 -0.678954 8.17253 54 33 52
-1.15131 0.586783 7.00515 66 26 34
0.891674 -0.966492 6.12351 85 55 79
-2.68922 1.10646 8.50838 54 43 77
-2.5623 1.09379 8.41622 106 119 172
-2.62664 1.04136 8.46354 163 181 245
-2.62585 1.04059 8.48531 38 28 88
-0.835373 -0.205041 6.85053 186 172 146
0.361965 0.522303 5.89688 87 44 61
0.429527 0.516322 5.85447 69 48 63
0.18113 0.568929 6.19635 84 38 49
1.05948 -0.808009 5.98872 133 119 132
-1.67073 1.02297 7.08283 109 56 66
-1.08383 0.408277 6.98429 66 26 37
-0.936455 0.949455 6.5421 126 84 94
-2.18252 1.07588 7.45021 116 110 124
-2.63355 1.03946 8.47383 30 25 81
1.3461 0.343012 5.6233 81 66 87
-1.93495 1.34055 5.66846 68 35 44
-1.09307 -0.913627 6.95348 68 41 56
-1.90879 -0.482252 8.13458 50 42 63
1.82811 1.57019 4.92832 42 30 66
1.86226 1.56911 4.92454 38 30 51
-2.66297 0.921178 8.53359 46 37 58
-0.353326 0.984084 6.10151 63 33 43
-1.6602 -0.963285 8.02831 90 71 103
-0.499 -0.0705007 6.58089 74 38 50
-1.15944 0.214483 7.0541 62 27 34
1.85522 1.57664 4.93003 28 22 50
-2.56522 0.960439 8.4562 173 193 255
-2.60988 1.03171 8.46306 19 34 77
1.72725 1.60251 5.06606 29 26 43
-0.932077 0.552041 6.69521 30 25 29
-0.536334 -0.936336 6.51854 158 105 125
-1.70425 1.70571 5.11129 241 244 251
1.78456 1.65746 4.96337 167 196 254
-0.796128 0.164158 6.70281 110 91 93
-0.50415 -2.5906 7.46021 57 37 49
-0.547346 -2.56716 7.49578 94 89 129
-0.557651 -2.56066 7.50261 148 144 179
-0.448684 -2.49152 7.39124 78 67 65
-3.60367 -3.57431 10.0838 128 132 177
-0.634359 -2.47305 7.56 152 149 134
0.711696 -2.03925 6.55793 95 66 84
-0.667418 -2.4088 7.59334 150 144 144
-0.423398 -2.32228 7.37128 156 151 145
0.849276 -1.9361 6.44574 130 111 133
0.834013 -1.912 6.45799 69 48 65
-0.609324 -2.31196 7.53518 60 44 54
-0.618338 -2.2653 7.53078 71 96 100
-0.474583 -1.8631 6.85858 84 33 50
-4.48908 -2.27877 10.2418 48 39 60
-3.62343 -2.06505 9.91621 46 50 98
-3.22641 -1.39171 9.58078 100 105 147
-1.08844 -0.933392 7.18023 57 29 43
-3.63239 -0.26346 9.72691 78 77 119
-0.828331 0.0843381 6.96554 203 196 177
-3.663 1.26018 9.52961 39 40 68
-3.68359 1.28789 9.52925 71 83 105
1.73472 1.62348 5.15525 38 24 37
1.90891 1.64474 5.00917 103 122 181
1.8258 1.69443 5.06919 45 71 145
1.92359 1.73101 4.9855 47 29 53
-0.409678 -2.34619 7.36573 158 132 117
-1.11354 -2.32604 8.03844 114 106 127
-1.10876 -2.28989 8.01844 58 45 62
0.225487 -1.43412 6.8749 79 60 82
0.190176 -1.38844 6.89841 59 41 55
-4.45449 -2.22607 10.2198 143 146 191
-4.4878 -2.17772 10.2492 110 111 165
-3.19551 -1.82716 9.59888 82 76 110
-0.590315 -0.968938 6.76958 62 29 38
-3.63023 -1.13993 9.79691 32 40 86
-3.64938 0.653737 9.60337 22 32 68
-0.79511 0.44359 6.77638 192 184 173
-0.837125 0.43891 6.75627 118 108 107
-0.734375 0.188984 6.90894 159 147 125
0.847823 -1.93304 6.43543 131 109 130
1.40889 0.34612 5.72905 67 50 69
-3.66954 -1.3329 9.85007 76 80 105
-1.06237 -0.920192 7.17691 96 58 71
0.584559 -1.70326 6.6305 71 49 72
1.27721 0.747733 5.73554 62 103 195
1.27042 0.838784 5.73881 61 102 194
-1.37706 0.992268 7.10143 79 40 58
1.90144 1.7668 4.99927 49 33 70
-4.72762 -3.63644 10.4219 171 180 223
-0.498927 -2.35276 7.44431 134 126 123
-0.420356 -2.3057 7.3602 72 70 55
-3.65522 1.25805 9.51108 39 40 68
-3.65168 1.09815 9.49128 63 69 95
-3.64069 1.08421 9.52755 30 29 60
-2.71134 0.984749 8.87933 41 44 85
-0.579902 0.561739 6.74381 55 34 33
-5.07782 -2.45672 9.97465 103 118 175
-4.51075 -2.28361 10.28 51 42 63
-4.51605 -2.19408 10.307 110 112 163
-3.6084 -2.05796 9.87508 31 37 87
-0.559609 -0.959794 6.76431 71 29 41
-1.06826 -0.921187 7.19185 96 58 71
-0.863269 -0.0405443 7.07004 134 106 95
2.53908 -1.43051 5.84556 52 58 92
1.73438 1.73838 5.13822 51 33 45
1.90686 1.63909 5.02098 23 23 83
-0.419998 -2.35364 7.36847 63 34 39
2.47424 -0.242047 5.67295 152 177 217
-2.67391 1.0668 8.86629 154 171 227
-0.761199 0.419175 6.78003 120 103 95
-0.746571 0.175619 6.8867 91 77 66
0.134551 0.319036 6.45026 70 28 30
-2.70413 0.979981 8.85545 44 48 83
-0.485947 -2.37048 7.44685 146 134 136
1.91479 1.59421 5.00901 47 36 50
0.418077 -0.0101094 5.92613 66 26 34
-0.648045 0.289895 7.00006 107 92 69
-3.24115 0.261507 9.40056 72 72 108
-0.392854 -1.0058 6.66962 113 75 88
-0.604371 -2.39679 7.52489 154 135 165
1.7234 1.65205 5.1576 38 30 45
-1.10425 -2.31417 7.99937 114 106 127
0.119313 0.337053 6.45875 37 16 21
1.43083 -1.37976 5.91663 58 49 66
-0.588272 -1.76396 7.05135 66 24 38
-0.809212 0.455478 6.77422 103 93 94
-0.814656 0.483791 6.73242 39 34 40
-3.66617 1.11103 9.5209 76 81 111
-3.63143 1.08167 9.48597 24 29 49
0.962526 -1.01023 6.2617 72 48 61
-0.63458 0.527332 6.70766 101 82 84
-3.66985 -1.36015 9.82026 27 32 51
1.87035 1.75012 5.01579 13 17 52
-2.68946 1.07861 8.84857 36 39 82
1.90962 1.5924 4.99764 33 25 38
2.23324 -0.88202 5.73298 23 22 27
-0.41234 -2.34015 7.39838 163 147 124
-4.48528 -2.27997 10.3027 103 110 154
-0.726548 0.492057 6.7637 156 146 134
-0.767361 0.441644 6.80209 202 198 186
2.22275 -0.877077 5.70909 22 17 21
-4.22713 2.19257 9.10709 131 151 152
-1.07664 -0.917428 7.20368 111 65 78
1.88378 1.62574 5.04052 150 177 244
-0.708284 0.111349 6.95681 72 46 31
-3.66083 1.27266 9.51552 27 32 54
1.10099 0.899996 5.88665 60 43 61
-1.08835 -2.34805 8.06452 40 29 46
0.17092 -1.38402 6.88147 38 22 25
1.52215 -1.04567 5.79141 52 39 49
-4.42115 -2.21526 10.1615 143 146 191
1.66021 0.042194 5.50422 74 54 66
1.8889 1.59088 4.97618 37 28 55
-0.225223 -1.63183 6.69244 113 62 71
-0.867112 0.911868 6.65127 63 57 103
-3.69865 -1.36135 9.71411 47 78 124
-1.06982 -0.926693 7.11366 67 39 54
-0.792804 0.48266 6.68533 43 32 38
-2.12549 -0.049237 8.50057 54 43 60
1.8161 1.76714 4.98359 94 105 123
-1.34939 0.980208 7.02253 79 40 58
-4.68305 -2.39492 10.1431 113 119 169
-2.65627 0.989334 8.77165 144 150 208
-0.858235 0.435169 6.74848 198 190 179
-3.62693 1.09647 9.44842 80 87 116
-3.15227 -1.81129 9.50637 77 73 108
-0.726803 0.514415 6.66837 135 130 124
-3.61516 1.21838 9.38933 62 66 93
0.999838 1.30241 5.85218 121 111 136
1.75451 1.76511 5.03855 20 31 59
1.87739 1.59151 4.95392 140 168 233
1.85988 1.72606 4.94607 13 17 52
1.81192 1.66718 4.99378 32 50 122
1.74319 1.60787 5.06135 33 45 87
-1.80457 1.73637 5.27049 53 49 86
1.90685 1.60473 4.92947 14 21 31
-1.28498 1.00078 4.07866 131 151 152
1.72502 1.71419 5.0545 34 21 38
1.89184 1.62061 4.92198 154 169 236
-2.52055 1.11783 8.4856 24 29 69
-1.00396 -0.386462 5.52861 111 65 75
-2.56546 0.936214 8.487 143 167 229
-2.63897 0.938904 8.56566 26 20 54
-2.59071 0.917501 8.42139 56 53 80
-2.62099 1.03123 8.41592 26 47 110
-2.67242 1.10147 8.50874 115 119 167
-2.57393 1.09546 8.37339 141 169 234
-2.67465 1.09392 8.47235 41 55 116
-2.6766 1.10733 8.46099 150 144 204
-2.58789 1.14249 8.39132 23 28 47
-0.0182491 1.1001 7.7813 124 135 181
-2.59093 1.13076 8.3909 136 152 204
-2.63038 1.03648 8.41399 157 168 230
-2.65967 0.972399 8.54984 157 161 224
-2.65327 1.14336 8.46748 23 13 40
-2.56553 0.958341 8.41842 161 184 251
-2.59698 0.92447 8.40479 127 142 199
-2.68528 0.937752 8.54244 25 31 55
-2.5809 1.07199 8.38091 15 26 80
-2.5405 0.949482 8.44458 19 20 41
-2.57927 1.09408 8.38332 148 175 242
-0.573667 1.03879 7.69835 82 39 49
-2.60796 0.948646 8.62758 64 50 101
-2.59661 1.16822 8.61982 26 20 48
-2.53372 1.06338 8.65832 41 69 134
-2.54729 1.06697 8.64618 163 181 245
-2.56267 1.05949 8.63147 38 28 88
-2.54528 1.05374 8.65307 176 190 251
-2.60037 0.949099 8.62005 155 156 213
-2.51659 1.1725 8.58288 22 24 45
-2.61584 1.13198 8.6382 158 163 227
-2.4873 0.972721 8.58615 11 23 61
-21.6331 -2.1738 -11.1859 139 153 198
-2.5225 1.16768 8.56694 19 22 39
-2.63936 0.969005 8.64121 26 40 79
-2.62949 0.940903 8.59355 29 25 50
-2.50373 0.978119 8.59418 173 193 255
-2.62889 1.00471 8.62008 37 57 116
-2.54556 1.14871 8.5282 165 185 246
-2.51528 0.97388 8.56821 173 193 255
-2.65596 0.986199 8.54703 59 70 134
-2.54067 1.10831 8.46216 154 178 242
-2.56035 0.926253 8.50406 55 60 82
-2.65301 1.10369 8.53537 34 52 118
-2.54261 1.09693 8.46147 64 70 144
-2.63029 0.93887 8.53702 149 140 203
-2.68367 0.941102 8.5622 36 43 71
-2.59536 1.0479 8.50824 148 169 232
-2.11261 0.781089 5.94366 141 152 197
-2.55895 1.14326 8.47063 160 179 238
-2.6644 1.10398 8.53241 126 137 183
-2.66044 0.971067 8.54763 160 164 228
-2.54312 0.980142 8.47995 39 45 119
-2.63785 0.938248 8.54706 33 25 64
-2.65759 0.962764 8.55514 134 125 188
-2.60211 1.04572 8.52052 31 24 78
-2.5324 1.113 8.45423 17 30 75
-2.53081 0.968388 8.49483 170 191 254
-2.6384 1.14986 8.51017 18 15 34
-2.55032 1.10615 8.45613 164 183 249
-2.56305 0.934753 8.49713 139 158 217
-2.64744 0.93492 8.54127 26 27 48
-2.64947 1.16254 8.51429 19 24 46
-2.65063 1.11578 8.52776 159 167 229
-2.53208 0.951513 8.46695 18 23 45
-2.55648 1.14624 8.49613 153 168 225
-2.52146 1.11891 8.50195 24 29 69
-2.54039 1.08862 8.50151 24 47 117
-2.54666 1.15878 8.5081 24 28 55
-2.54166 0.966546 8.48903 157 187 249
-2.55333 1.08401 8.46511 15 36 103
-2.52728 0.958346 8.48966 11 24 69
-2.66558 0.942057 8.5836 19 27 48
-2.56111 0.922362 8.49002 32 37 57
-2.59374 0.916203 8.40932 56 53 80
-2.58673 0.918397 8.42929 44 44 72
-2.64258 1.01848 8.36663 165 171 229
-2.6533 0.927693 8.44859 131 126 182
-2.56228 0.959953 8.4312 161 184 251
-2.53423 0.958344 8.47296 10 22 62
-2.59502 0.924719 8.40437 120 139 195
-2.70287 0.928877 8.46595 25 31 55
-2.54766 1.11228 8.42651 11 26 69
-2.54108 1.0693 8.66047 163 181 245
-2.59738 1.13881 8.68146 158 163 227
-2.51853 0.964159 8.51643 11 23 61
-2.57342 1.1696 8.65073 145 138 190
-2.60737 1.13947 8.71227 29 29 53
-2.59267 0.951415 8.67829 33 26 67
-2.57681 0.955399 8.68231 151 147 206
-2.52878 1.06235 8.66148 22 42 101
-2.53113 0.97138 8.53246 173 193 255
-2.54952 1.09729 8.45072 71 83 157
-2.61784 1.15102 8.52148 119 109 159
-2.54782 0.976689 8.47078 51 58 130
-2.59018 1.04812 8.51807 158 174 236
-2.65804 1.1133 8.55685 40 33 66
-2.59795 1.04323 8.52322 34 27 81
-2.54522 0.964711 8.47413 170 191 254
-2.65902 0.963593 8.57084 25 32 74
-2.55059 1.10816 8.45191 165 184 250
-2.54515 1.10883 8.43624 17 30 75
-2.64702 0.970044 8.56444 165 174 239
-2.66617 0.957522 8.55929 18 22 60
-2.56179 0.935408 8.49891 139 158 217
-2.62254 0.939786 8.54425 154 152 215
-2.55513 1.15863 8.8464 126 130 178
-2.54728 1.05761 8.64605 150 161 217
-5.9629 0.621443 3.64744 110 114 91
-5.71599 0.565628 3.51044 104 90 116
-2.57476 1.09559 8.37501 143 173 235
-2.53801 1.16568 8.89714 126 130 178
-2.58899 0.951795 8.34726 157 182 246
-5.90205 0.590543 3.61898 89 109 159
-2.55038 1.0557 8.63803 161 173 231
-2.57456 1.04778 8.54743 30 56 117
-2.602 1.12459 8.35635 146 166 227
-2.5529 1.16239 8.88208 50 39 69
-2.59514 0.949217 8.33364 159 183 247
-2.5543 1.16143 8.82094 147 147 207
-2.56895 1.13952 8.77803 16 36 97
-2.57849 0.954677 8.38031 159 183 247
-2.53386 1.02803 8.90304 33 43 114
-8.83714 0.881287 -0.444545 183 172 154
-2.59818 0.940289 8.29486 11 29 79
-2.59249 0.916794 8.4129 39 45 67
-2.54561 1.16379 8.84107 154 160 222
-2.55723 1.00049 8.88936 31 34 75
-2.55457 0.929237 8.51792 39 46 72
-2.52684 1.19199 8.79112 129 123 183
-2.59774 1.08325 8.28176 22 31 70
-2.61141 0.93548 8.25769 12 24 64
-2.56506 1.17312 8.67698 143 147 208
-2.53468 1.06838 8.71416 22 24 62
-2.53995 1.07543 8.6611 163 178 247
-2.44053 0.999005 9.14301 21 29 48
-2.64079 1.07264 8.16666 16 23 41
-2.53753 0.959016 8.87805 19 21 34
